<svg width="150" height="25" viewBox="0 0 150 25" fill="none" xmlns="http://www.w3.org/2000/svg">
<g clip-path="url(#clip0_1314_12)">
<path d="M0 21.0306V20.9122C0 18.6042 1.62417 17.2726 4.87674 16.9133L8.58306 16.4609V16.0932C8.58306 14.0683 7.7943 13.058 6.21254 13.058H6.10228C4.52052 13.058 3.68512 13.8908 3.59182 15.5563H0.411342C0.559765 13.8231 1.14921 12.5296 2.17969 11.6715C3.20593 10.8133 4.53749 10.3864 6.16165 10.3864H6.03019C7.76886 10.3864 9.1089 10.864 10.0461 11.8194C10.9833 12.7748 11.454 14.2036 11.454 16.0974V21.9775H13.5997V24.6534H8.96472L8.723 22.8695H8.39223C7.73493 24.294 6.45426 25.0085 4.55021 25.0085H4.43571C3.11687 25.0085 2.04823 24.6407 1.22979 23.9094C0.411342 23.178 0 22.2185 0 21.0391L0 21.0306ZM2.86243 20.7854V20.8953C2.86243 21.8465 3.51125 22.3241 4.80889 22.3241H4.92339C7.366 22.3241 8.59154 21.1363 8.59154 18.7648V18.7098L5.32201 19.103C3.68512 19.289 2.86667 19.8512 2.86667 20.7854H2.86243Z" fill="white"/>
<path d="M17.675 20.0076C17.675 20.8277 17.8998 21.4195 18.3493 21.7831C18.7988 22.1466 19.49 22.3284 20.4229 22.3284H20.5205C22.1616 22.3284 22.98 21.8211 22.98 20.8066C22.98 20.2613 22.7256 19.8512 22.2167 19.5807C21.7079 19.3101 20.83 19.0015 19.5875 18.6633C18.0609 18.2322 16.899 17.6699 16.106 16.9851C15.313 16.3003 14.9186 15.3999 14.9186 14.2924C14.9186 12.9777 15.3723 11.9674 16.2756 11.2614C17.1831 10.5555 18.4256 10.2046 20.0116 10.2046H19.9946C21.7206 10.2046 23.0903 10.6189 24.0996 11.4516C25.1088 12.2844 25.6135 13.5315 25.6135 15.197H22.4542C22.4372 13.7724 21.6654 13.058 20.1431 13.058H20.0201C18.6249 13.058 17.9294 13.5484 17.9294 14.5291C17.9294 14.9941 18.1754 15.3492 18.6673 15.5986C19.1592 15.848 19.9904 16.1397 21.1608 16.4736C22.7765 16.9386 23.9639 17.4797 24.7145 18.1011C25.4693 18.7225 25.8425 19.6525 25.8425 20.8953C25.8425 22.1382 25.3633 23.2034 24.4049 23.9221C23.4465 24.6449 22.1531 25.0042 20.5162 25.0042H20.4399C18.6843 25.0042 17.2806 24.59 16.2247 23.7614C15.1688 22.9329 14.6387 21.6816 14.6387 20.0076H17.6708H17.675Z" fill="white"/>
<path d="M26.8348 10.7372H29.5191V7.54143L32.5596 7.2878V10.7372H36.3169V13.4131H32.5596V21.0729C32.5596 21.428 32.6233 21.6689 32.7462 21.7873C32.8692 21.9099 33.1109 21.9691 33.4714 21.9691H36.3169V24.6449H33.3823C32.1271 24.6449 31.1433 24.2898 30.4224 23.5796C29.7015 22.8695 29.341 21.931 29.341 20.7685V13.4089H26.8348V10.733V10.7372Z" fill="white"/>
<path d="M38.4584 10.5555H41.677V11.9801H42.0417C42.61 11.0289 43.5514 10.5555 44.8745 10.5555L46.6852 10.733V13.4089H42.7584C42.2622 13.4089 41.9272 13.4934 41.7534 13.6583C41.5795 13.8231 41.4947 14.1444 41.4947 14.6221V24.6449H38.4541V10.5555H38.4584Z" fill="white"/>
<path d="M47.7624 16.7907C47.7624 14.7109 48.284 13.1214 49.3314 12.0265C50.3746 10.9317 51.791 10.3821 53.5848 10.3821H53.7544C55.5439 10.3821 56.9603 10.9317 58.0077 12.0265C59.0509 13.1214 59.5768 14.7109 59.5768 16.7907V18.5915C59.5768 20.6713 59.0552 22.2607 58.0077 23.3598C56.9645 24.4547 55.5482 25.0042 53.7544 25.0042H53.5848C51.7952 25.0042 50.3788 24.4547 49.3314 23.3598C48.2882 22.265 47.7624 20.6755 47.7624 18.5915V16.7907ZM51.3033 21.3392C51.7401 21.8803 52.4652 22.1508 53.4872 22.1508H53.6568C54.6788 22.1508 55.4125 21.8761 55.8577 21.3265C56.303 20.777 56.5235 19.8385 56.5235 18.5154V16.723C56.5235 15.3788 56.303 14.4319 55.8577 13.8823C55.4125 13.3328 54.6788 13.058 53.6568 13.058H53.4872C52.4652 13.058 51.7316 13.3328 51.2863 13.8823C50.8411 14.4319 50.6206 15.3788 50.6206 16.723V18.5154C50.6206 19.8597 50.8453 20.8023 51.3033 21.3434V21.3392Z" fill="white"/>
<path d="M72.5362 20.0076C72.5362 20.8277 72.7609 21.4195 73.2104 21.7831C73.6599 22.1466 74.3512 22.3284 75.2841 22.3284H75.3816C77.0228 22.3284 77.8412 21.8211 77.8412 20.8066C77.8412 20.2613 77.5868 19.8512 77.0779 19.5807C76.569 19.3101 75.6912 19.0015 74.4487 18.6633C72.9221 18.2322 71.7601 17.6699 70.9671 16.9851C70.1741 16.3003 69.7798 15.3999 69.7798 14.2924C69.7798 12.9777 70.2335 11.9674 71.1368 11.2614C72.0443 10.5555 73.2868 10.2046 74.8728 10.2046H74.8558C76.5818 10.2046 77.9515 10.6189 78.9608 11.4516C79.97 12.2844 80.4747 13.5315 80.4747 15.197H77.3154C77.2984 13.7724 76.5266 13.058 75.0042 13.058H74.8813C73.4861 13.058 72.7906 13.5484 72.7906 14.5291C72.7906 14.9941 73.0366 15.3492 73.5285 15.5986C74.0204 15.848 74.8516 16.1397 76.022 16.4736C77.6377 16.9386 78.8251 17.4797 79.5756 18.1011C80.3305 18.7225 80.7037 19.6525 80.7037 20.8953C80.7037 22.1382 80.2245 23.2034 79.2661 23.9221C78.3077 24.6449 77.0143 25.0042 75.3774 25.0042H75.3011C73.5455 25.0042 72.1418 24.59 71.0859 23.7614C70.03 22.9329 69.4999 21.6816 69.4999 20.0076H72.5319H72.5362Z" fill="white"/>
<path d="M81.9292 10.7372H84.4354V7.54143L87.476 7.2878V10.7372H91.2332V13.4131H87.476V21.0729C87.476 21.428 87.5396 21.6689 87.6625 21.7873C87.7855 21.9099 88.0272 21.9691 88.3877 21.9691H91.4113V24.6449H88.4767C87.2215 24.6449 86.2377 24.2898 85.5168 23.5796C84.7959 22.8695 84.4354 21.931 84.4354 20.7685V13.4089H81.9292V10.733V10.7372Z" fill="white"/>
<path d="M93.5571 10.7372H96.5976V19.4369C96.5976 21.2462 97.3185 22.1508 98.7603 22.1508H98.8706C99.812 22.1508 100.533 21.8507 101.033 21.2547C101.534 20.6586 101.784 19.8301 101.784 18.7648V10.5555H105.003V24.6449H101.784V22.6835H101.47C100.77 24.2306 99.5533 25 97.8104 25H97.874C96.5467 25 95.495 24.535 94.719 23.6008C93.943 22.6666 93.5528 21.3519 93.5528 19.6568V10.7372H93.5571Z" fill="white"/>
<path d="M106.974 16.964C106.974 14.9095 107.39 13.299 108.221 12.128C109.052 10.9613 110.189 10.3737 111.626 10.3737H111.711C113.526 10.3737 114.764 11.1473 115.426 12.6902H115.562V4.49358H118.78V24.6449H115.74V22.5059H115.43C114.756 24.1715 113.509 25.0042 111.694 25.0042H111.639C110.159 25.0042 109.014 24.4462 108.196 23.3345C107.382 22.2227 106.974 20.6375 106.974 18.5788V16.9682V16.964ZM112.623 22.1466H112.733C114.62 22.1466 115.562 20.9334 115.562 18.5069V16.871C115.562 14.4445 114.62 13.2313 112.733 13.2313H112.623C110.884 13.2313 110.015 14.5375 110.015 17.1542V18.3378C110.015 20.8784 110.884 22.1466 112.623 22.1466Z" fill="white"/>
<path d="M121.465 8.23893V4.67113H125.044V8.23893H121.465ZM121.821 24.6449V10.5555H124.861V24.6449H121.821Z" fill="white"/>
<path d="M127.368 16.7907C127.368 14.7109 127.889 13.1214 128.937 12.0265C129.98 10.9317 131.396 10.3821 133.19 10.3821H133.36C135.149 10.3821 136.566 10.9317 137.613 12.0265C138.656 13.1214 139.182 14.7109 139.182 16.7907V18.5915C139.182 20.6713 138.66 22.2607 137.613 23.3598C136.566 24.4589 135.153 25.0042 133.36 25.0042H133.19C131.401 25.0042 129.984 24.4547 128.937 23.3598C127.894 22.265 127.368 20.6755 127.368 18.5915V16.7907ZM131.091 21.3392C131.528 21.8803 132.253 22.1508 133.275 22.1508H133.445C134.466 22.1508 135.2 21.8761 135.645 21.3265C136.091 20.777 136.311 19.8385 136.311 18.5154V16.723C136.311 15.3788 136.091 14.4319 135.645 13.8823C135.2 13.3328 134.466 13.058 133.445 13.058H133.275C132.253 13.058 131.519 13.3328 131.074 13.8823C130.629 14.4319 130.408 15.3788 130.408 16.723V18.5154C130.408 19.8597 130.633 20.8023 131.091 21.3434V21.3392Z" fill="white"/>
<path d="M141.875 5.22489L139.487 3.85103L140.921 1.37386L143.308 2.74772V2.27849V0H146.175V2.11786V2.75194L148.567 1.37386L150 3.85103L147.833 5.09807L147.613 5.22489L150 6.59875L148.567 9.07592L146.175 7.69783V8.49679V10.4498H143.308V7.69783L143.075 7.83311L140.921 9.07592L139.487 6.59875L141.502 5.44048L141.875 5.22489Z" fill="#F7A600"/>
</g>
<defs>
<clipPath id="clip0_1314_12">
<rect width="150" height="25" fill="white"/>
</clipPath>
</defs>
</svg>
